<?xml version="1.0" encoding="UTF-8"?>
<svg version="1.1" viewBox="0 0 1080 1080" width="1280" height="1280" xmlns="http://www.w3.org/2000/svg">
<path transform="translate(654,17)" d="m0 0h29l7 3 4 4 3 14 3 6-1 5-5 5-6 3h-7l-7-5-3-1h-11l-23 3-12 3-13 1-3 1-3 9-3 10-3 7-3 11-7 14-6 16-3 5-3 10-1 1-1 28-5 12-1 4 6-2 9-9 8-6 7-6 6-5 6-2v-2l14-9 4-4 5-2v-2l6-2v-2l12-7 16-10 13-5 6-3 9-3 14-3 1-1 10-1 2-1 26-1 12 1 19 7 4 2v2l4 1 2 1v2l5 2 3 2v2h2l9 11 2 3v3h2l3 10 4 10 2 11v26l-3 13-3 8-2 7-1 4h-2l-1 5-11 23-3 6h-2l-1 4-5 10h-2l-2 6-7 11-4 6-5 7-3 5-11 15-2 3h-2l-2 5-2 3h-2l-2 4-3 5h-2l-2 4-4 6h-2l-2 4-5 7h-2l-2 4-4 6v2h8l5-2 9-2 17-1 4-1h26l7 3 6 6 1 10 4 9-1 5-4 5-5 2h-10l-6-4v-2l-22 1-2 1-10 1-2 1-9 1-2 1-14 1-5 4-3 13-4 8-3 10-4 10-3 5-3 10-6 12-4 10-3 6h-2l-1 5-3 10-3 5-4 11-2 5h-2l-1 6-3 10-5 9-4 13-3 5-5 14-2 4h-2v4h-2l-1 5-4 10-3 5-3 10-5 11-4 8v6l1 1h8l2-1h14l9-3 3-3 5-3 8-6 6-2v-2l7-4h3v-2l12-7 14-7 4-3h4v-2l14-5 8-4h13l7 4 5 8 6 7v12l-4 10v3h9l10-4 26-4 7-1 11-5 4-2 5 1 1 4-4 8-7 7-7 9-8 4-12 5-7 2-9 1-1 1-11 1-28 7-12 2-11 1-6 2-19 2-23 1-10 7h-2v2l-5 3-7 6-5 2v2h-2v2l-6 4h-2v2h-2v2l-6 5-1 2h-2v2h-2v2h-2v2h-2v2h-2v2h-2l-2 4-5 7h-2l-2 5-5 6-1 3h-2l-2 6-4 8v9l6 9 8 8 11 8 14 7 17 9 6 3h5l4-1v-2h2v-2h2v-2l11-8 9-7h3v-2l10-7 11-8 11-7 12-9 3-1v-2l10-1 9-4 10-7 5-3h2v-2l6-4h2v-2l3-2h3v-2l10-7 20-13 9-4 7-1 15-10 11-8 8-4h6l3 3v5l-9 7-5 3-10 8-6 2v2l-6 4h-2v2l-7 4-14 10-6 4-4 1v2l-11 8-3 3-5 3-7 5h-2v2l-6 2v2l-13 9h-2v2l-8 5-6 4-13 10-10 7-5 4-11 8h-2v2l-6 4h-2v2l-8 6v7l10 9 2 3v3h2v4h2l4 9 2 8v32l-2 10-4 6-7 6-8 11-11 11-10 7-11 8-11 6h-3v2l-14 5-10 4-11 2-19 1-9 5h-6l-9-4-1-4 2-5v-12l-1-1-2-9-2-5h-3l-5 4-18 1-4 1-13 1-2 1-10 1-15 4-16 4-7 1-7 3-6 2-7 1-8 3-10 4-14 6-6 3-9 3-9 5-7 3-11 6-9 3-6 4-5 3-17 4-3 1h-8l-4-4-3-14-1-1v-15l3-7 5-6 8-7 3-1v-2l11-8 10-5 10-2 7-3 3-3 3-7 5-6 12-8 11-6 17-9 20-9 9-2 10-1 8-3 4-2 2-4 2-17 2-9 3-7 3-10 5-12 9-16 2-5 2-8 1-9 4-12 5-12 6-15 3-6 3-10 4-8 6-7 2-6 1-7 5-11 5-13 4-8v-5l-4-1-3-1-16-1-2-1-11-1-2-1-10-1-7-3-7-1-1-1-8-1-8-3-17-6-5-3-4-1v-2l-5-1-15-9-10-8-17-17h-5l-2 2-2 8-1 9-1 1-3 18-1 1-2 10-4 26-3 9-3 12-3 7-1 4h-2l-1 5-1 3h-2l-2 4-3 1v2l-3 2h-8l-8-6-2-3v-20l1-2v-26l-1-3-1-26-1-7v-18h-8l-24 12-8 3-11 5-17 8-10 4-9 7-9 1-1 1-7 1-1 1h-11l-4-5-1-9-3-7 2-16 4-7h2v-2l11-9 4-2v-2l14-9 10-3 8-2 5-4 3-7h2l2-4 5-5 6-2v-2l14-7 11-7 10-5 5-2h4v-2l6-2 3-3 3-11 1-7 1-1 1-7 1-1 1-7 3-8 2-7 3-10 5-12 5-11 5-14 14-28 1-4h2v-4h2l1-4 8-15 6-11 7-11 5-9 8-12 16-22 6-9h2l2-5 6-9 5-13 5-11 4-10 7-15v-4l-12-1-6-3-3-6 1-5 4-6 7-8 11-15 8-12 1-3h2l2-5 7-10 8-12 4-5 5-7h2l2-5 2-3h2l1-4 3-9 1-4-11 4-6-1-7-5v-2h-2l-1-5 5-9 8-9 8-10 7-10 10-12v-5l-4 1-10 4-10 3-21 7-1 1h-10l-5-5-4-7-3-11 2-5 4-4 8-4 16-5 10-4 21-5 9-2 1-1 15-3 11-3 7-1 9-3 12-3 10-1 2-1 10-1 2-1 11-1 2-1 18-1zm83 101-9 2-1 1-10 1-14 5-7 3-10 4-22 12-10 7-2 1v2l-6 2-15 12-14 11-7 6-9 7v2l-5 2-15 14-12 12-12 11-2 1v2h-2l-5 5v2h-2v2h-2l-13 20-8 16v4h-2l-3 9-3 5-3 10-6 11-5 13-14 28-3 8-3 5-5 13-6 12-5 13-5 10v4h-2l-6 16-7 14-3 10-3 6-3 13-6 13-5 13-3 6-3 12-6 12-1 6 2 3 7-1 8-4 10-3 10-5 10-4 17-8 8-5 3-1v-2l4-1 16-9 9-6 3-1v-2l4-1 6-3v-2l4-2 11-8 7-6 5-3 11-9 3-2v-2l5-2 6-5 5-4 1-3-3-5-4-4h-2l-2-10-1-1v-9l1-3 5-2 8-4 10-3 6-3 13-3 9-3 17-4 9-3 5-5 4-7 8-4 3-2v-2h2v-2h2v-2h2v-2h2l9-11 2-4h2v-2h2l6-8v-2l3-1 9-11 1-3h2v-2h2l8-11 10-14 7-10 3-7 3-9 7-6v-2l4-2 7-12 5-10 11-19 5-10 4-10 3-12 1-1 4-20 1-4v-9l-3-12-4-6-9-8-11-5-8-2-11-1-2-1zm-258 213-6 9-6 11-7 14v2h-2l-3 10-8 14-6 10-3 10-6 14-7 14-3 4v4h-2l-3 10-5 13-3 7-3 8-1 1v16l4-2 4-8 4-11 3-5 3-9 3-4v-3h2l3-10 5-12 1-4h2l3-8 5-9 3-9 6-12 5-13 7-14 3-10 4-8 3-13 3-6zm247 2-7 6-4 6-11 8-12 13-2 5-4 2-6 7 1 4h8l8-4 4-5 7-8 5-6 4-11v-2l6-2 7-7v-5zm-88 96-9 3-13 5-9 7-11 8-4 4v2h-2v2l-5 2-12 12-8 5v2h-2v2h-2l-6 10-10 5-8 7-11 7-7 4-5 5-6 5-3 5-10 3-6 5-9 3-11 7-7 4-11 4-5 3-13 3-5 6 2 1h7l6-4 2-2 11-2 8-3 1-1 10-2 14-6 9-6v-2l4-2 4-3 7-2 13-5 12-9v-2l7-2 9-6 7-6 2-1v-2h2v-2h2v-2h2v-2l4-2 9-6 10-7 6-4 8-8 10-8 13-13 2-1v-2l4-2 5-5 3-4-1-4zm-34 59-8 3-6 6-5 3-9 6v2l-4 2-7 5v2l-5 2-3 2v2l-5 2-11 8-5 3-14 9-11 6-7 4-17 9-10 4-10 5-7 3-1 4 2 2 10 3 5 4 1 2h2l2 5 5 9 2 5v14l-5 9 2 4 2 2 12 1 12 3 19 3 9 2 17 1 2 1h6l5-5 4-12 5-11 3-8 5-9 3-5 3-10 5-11 3-9 3-7 5-13 4-8 5-14 5-10 5-13 2-4v-7l-5 1-4 2-6-1-5-7zm-209 31-5 6v6l2 3 4-1 3-5 1-7-1-2zm54 87-6 4-1 1-10 1 2 4 10 6 12 6 6-1 6-8v-6l-1-1-9-1-7-5zm148 25-4 4-5 11 1 7 1 1h7l2-2 2-12v-8zm10 39-2 1 1 5 1 1h8l3-3-1-3-3-1zm-33 16-5 3-3 5-4 12-5 11-3 10-6 12-3 10-5 9-3 11-8 16-5 12-3 7-2 7-5 13-4 5-4 7-1 8-1 1-1 8-5 10-6 21-3 7v10l1 2 4-1 4-8 3-10 5-12 4-10 5-10 3-10 1-5h2l6-16 7-14 6-16 2-5v-5h2l3-8 8-15 3-8 7-14 4-10 5-11 3-12 3-5 2-5-1-5-4-2zm23 2-4 3-1 7 4 1 7-6v-5zm-39 86-3 7-3 11-4 6-5 13-3 6-3 10-5 11-6 14-3 5-3 11-3 7-3 10-6 12-4 12-1 13 2 7 5 5 9-1h28l7 1 6-3 7-9 5-12 3-8 9-10 11-10 8-7 5-4 9-3 5-4 1-6-5-4-10-7-18-14-8-11h-2l-2-5-3-3-8-18-1-1-1-13-3-8zm89 95-10 9-16 15-10 9-27 27-6 8v8l7 8 2 5 4 4 5-1 19-5 16-7v-2l4-1 7-3 8-10 6-7v-2h2v-2h2v-2h2l11-14 2-2v-3h2l4-9v-5l-5-5-22-12zm-176 66-6 3v3l1 1h7l4-2-1-5z" fill="#F9F9F9"/>
<path transform="translate(580,464)" d="m0 0h2l-2 4-7 7-6 4h-2v2h-2v2h-2l-2 6-4 5-10 5-8 7-11 7-11 4-16 9-10 5v-2l17-10 24-16 18-13 14-11 11-9z" fill="#232323"/>
<path transform="translate(760,283)" d="m0 0 1 2-6 10-5 6-7 11-11 13-7 10-5 4-5 7-11 8-6 6-2-1 7-8 11-12 9-11 10-11 9-11 13-16z" fill="#2C2C2C"/>
<path transform="translate(627,550)" d="m0 0 1 3-10 27-19 47-4 5-4 10-4 6-1-2 12-30 18-42 10-23z" fill="#131313"/>
<path transform="translate(556,684)" d="m0 0h2l-1 5-12 28-18 43-16 38-19 49-3 4 2-9 4-11 2-8h2l1-5 11-28 18-41 4-10 11-25 11-27z" fill="#131313"/>
<path transform="translate(635,154)" d="m0 0 2 1-11 10-14 11-11 10-10 8-17 14-15 15-2-1 20-20 8-7 15-14 14-11 15-12z" fill="#131313"/>
<path transform="translate(463,550)" d="m0 0h3l-1 3-10 3-9 5-13 3-6 4-4 3-7 2-13 1 1-3 10-4 23-7 9-4 11-5z" fill="#141414"/>
<path transform="translate(705,117)" d="m0 0 4 1-23 10-16 8-24 14-4 1 2-4 21-13 19-9z" fill="#131313"/>
<path transform="translate(422,587)" d="m0 0h33l13 2 6 5v2l-9-3-5-2-7-1-1 2-5-1v2l-5-2-8-1-32 1 1-2 4-1z" fill="#131313"/>
<path transform="translate(747,662)" d="m0 0h12l-3 2-28 4-27 3-4 1-2-2 7-4 37-3z" fill="#131313"/>
<path transform="translate(419,414)" d="m0 0 1 3-9 21-16 41-8 20-1-3 12-34 18-43z" fill="#131313"/>
<path transform="translate(486,947)" d="m0 0h7l-3 2-2 2 4 3-9 2-3-1 5-1-1-2-19 3-27 7h-5l2-2 36-10z" fill="#131313"/>
<path transform="translate(363,622)" d="m0 0h3l-4 18-4 19-1 7-2 1v-9l2-10-2 1 2-16 2-9 2-1-1 8-1 2h2z" fill="#131313"/>
<path transform="translate(701,343)" d="m0 0v3l-7 7-9 11-10 11-9 11-6 2 12-14 1-3h2v-2h2v-2h2v-2h2l2-4 9-11h2v-2l5-3z" fill="#747474"/>
<path transform="translate(468,934)" d="m0 0 2 1-1 2-6 1 1 5-24 6-4-1 14-7 13-6z" fill="#1A1A1A"/>
<path transform="translate(557,486)" d="m0 0h2l-1 4-5 5-8 4-8 7-11 7h-3l2-4 15-10 10-7z" fill="#FCFCFC"/>
<path transform="translate(513,942)" d="m0 0h39v5l-3 1-6-3h-23l-16 1v-2z" fill="#131313"/>
<path transform="translate(758,300)" d="m0 0v3l-14 19-12 15-2-4 6-8 12-13z" fill="#131313"/>
<path transform="translate(509,798)" d="m0 0 1 3-13 33-7 17-1-3 6-17 2-8h2l1-5 7-18z" fill="#262626"/>
<path transform="translate(531,502)" d="m0 0m-1 1m-1 1m-2 1h2l-2 4-3 2-1 3-10 4-21 12-3 1v-2l17-10z" fill="#171717"/>
<path transform="translate(463,550)" d="m0 0h3l-1 3-10 3-9 5-14 3v-2l8-4 11-4 6-3z" fill="#6D6D6D"/>
<path transform="translate(731,773)" d="m0 0h7l-4 4-19 13v-3l8-9 5-4z" fill="#2C2C2C"/>
<path transform="translate(614,896)" d="m0 0h2l-2 4-26 26h-2l2-4z" fill="#606060"/>
<path transform="translate(688,685)" d="m0 0h12l-4 2-3 1-23 1-4 3-4-1 7-5z" fill="#6B6B6B"/>
<path transform="translate(555,718)" d="m0 0h1l-1 9-6 12-3 10-4 3 1-5z" fill="#616161"/>
<path transform="translate(487,312)" d="m0 0 1 3-6 14-5 3-3 7h-2l1-5 6-10 6-9z" fill="#131313"/>
<path transform="translate(475,567)" d="m0 0h2l-1 3-13 5-5 2v3l-10-2 4-2 16-6z" fill="#7C7C7C"/>
<path transform="translate(807,653)" d="m0 0h6v1l-24 6h-9l-1-2z" fill="#131313"/>
<path transform="translate(403,497)" d="m0 0h1l1 10-5 11-4-1 5-14z" fill="#131313"/>
<path transform="translate(505,321)" d="m0 0h1v5l-13 26-2-1 13-28z" fill="#6C6C6C"/>
<path transform="translate(645,867)" d="m0 0h3l-2 4-8 7-9 8-3-1 7-7 8-7z" fill="#646464"/>
<path transform="translate(690,365)" d="m0 0 1 4-10 10h-2l-1 5-6 1 6-7 11-11z" fill="#2E2E2E"/>
<path transform="translate(679,368)" d="m0 0v3l-9 10-5 6-5 1 6-7z" fill="#131313"/>
<path transform="translate(599,993)" d="m0 0 4 1-3 2-23 1 1-3z" fill="#747474"/>
<path transform="translate(604,484)" d="m0 0 2 1-8 6-7 6-4-1 9-8 4-3z" fill="#434343"/>
<path transform="translate(829,631)" d="m0 0h4v5l-12 3-2-1 2-2h3l1-3z" fill="#4D4D4D"/>
<path transform="translate(580,464)" d="m0 0h2l-2 4-7 7-6 4h-2l2-4z" fill="#6D6D6D"/>
<path transform="translate(246,610)" d="m0 0h7l-4 4-12 6 2-4z" fill="#2A2A2A"/>
<path transform="translate(502,846)" d="m0 0h1l-1 12-3 5-1 4-3 1 3-11z" fill="#515151"/>
<path transform="translate(449,555)" d="m0 0 1 2-4 4-14 3v-2l8-4z" fill="#5A5A5A"/>
<path transform="translate(530,129)" d="m0 0 1 3-3 5-4 1-1 3h-6l5-5z" fill="#212121"/>
<path transform="translate(604,743)" d="m0 0 1 3-2 3h-2l-2 5-5 6-1 3-3-1 6-9z" fill="#6B6B6B"/>
<path transform="translate(498,826)" d="m0 0 1 3-9 22-1-3 7-20z" fill="#131313"/>
<path transform="translate(512,515)" d="m0 0m-1 1m-2 1h2v2l-19 11-3 1v-2l17-10z" fill="#131313"/>
<path transform="translate(376,1010)" d="m0 0 2 1-3 3-9 5-9 1 3-3 9-3z" fill="#666"/>
<path transform="translate(348,965)" d="m0 0h7l-5 4-8 5-3-1 7-6h2z" fill="#1D1D1D"/>
<path transform="translate(432,986)" d="m0 0 3 1-8 4-10 4-4-1 15-7z" fill="#5D5D5D"/>
<path transform="translate(584,667)" d="m0 0h5l1 3-3 5-5-1z" fill="#131313"/>
<path transform="translate(801,664)" d="m0 0h2v2l-6 3-5 1h-10l4-2z" fill="#585858"/>
<path transform="translate(686,360)" d="m0 0v3l-12 11-1-3h2v-2h2v-2h2v-2h2l2-4z" fill="#737373"/>
<path transform="translate(553,781)" d="m0 0h1l-1 11-5 9h-2l3-9z" fill="#4F4F4F"/>
<path transform="translate(435,481)" d="m0 0h1v7l-4 10-4 4 3-9z" fill="#545454"/>
<path transform="translate(494,869)" d="m0 0h1v8l-3 10-3 1 4-16z" fill="#525252"/>
<path transform="translate(488,616)" d="m0 0h1v8l-5 9h-2l-1 2 1-5 5-11z" fill="#575757"/>
<path transform="translate(632,484)" d="m0 0 1 3-2 4-7 4-3-1 7-7z" fill="#131313"/>
<path transform="translate(663,526)" d="m0 0h1v5l-2 5h-2l-1 6-2 5h-2l3-9z" fill="#595959"/>
<path transform="translate(554,521)" d="m0 0 2 1-5 5-9 6-4-1 12-8z" fill="#5F5F5F"/>
<path transform="translate(755,646)" d="m0 0 1 2h7v1l-15 2h-7l4-2z" fill="#131313"/>
<path transform="translate(538,819)" d="m0 0 1 4-5 14-3-1z" fill="#727272"/>
<path transform="translate(749,676)" d="m0 0 3 1-3 2-8 2h-10l4-2z" fill="#454545"/>
<path transform="translate(530,265)" d="m0 0 1 4-7 14h-2l2-6z" fill="#656565"/>
<path transform="translate(555,718)" d="m0 0h1l-1 9-3 6h-2l-1 2 1-5z" fill="#545454"/>
<path transform="translate(536,764)" d="m0 0 1 4-4 10-2 4-2-1z" fill="#424242"/>
<path transform="translate(520,965)" d="m0 0h8l-1 2-4 1h-13l4-2z" fill="#585858"/>
<path transform="translate(458,574)" d="m0 0h2v3h-2v3l-10-2 4-2z" fill="#191919"/>
<path transform="translate(733,407)" d="m0 0h6l-3 2-7 2h-12v-1z" fill="#353535"/>
<path transform="translate(622,987)" d="m0 0 2 1-7 4-2 1h-10v-1l15-4z" fill="#464646"/>
<path transform="translate(640,583)" d="m0 0h1v5l-4 9h-3l2-6z" fill="#636363"/>
<path transform="translate(795,406)" d="m0 0h3l-1 3-5 2h-9l4-2z" fill="#555"/>
<path transform="translate(680,948)" d="m0 0 1 3-8 8-3-1z" fill="#595959"/>
<path transform="translate(576,667)" d="m0 0h6l-2 6-5-1z" fill="#131313"/>
<path transform="translate(359,735)" d="m0 0 1 3-4 5h-2v2l-6 1 5-4z" fill="#5B5B5B"/>
<path transform="translate(606,617)" d="m0 0 1 3-4 12-2-1 1-5z" fill="#131313"/>
<path transform="translate(513,126)" d="m0 0v3l-5 8-3-1v-3z" fill="#131313"/>
<path transform="translate(603,668)" d="m0 0h5l-1 3h-2v4h-4z" fill="#3C3C3C"/>
<path transform="translate(490,560)" d="m0 0h2l-1 3-9 4-4-1z" fill="#666"/>
<path transform="translate(390,535)" d="m0 0h2l-1 7-2 4-3 1 3-9z" fill="#131313"/>
<path transform="translate(592,635)" d="m0 0 1 3-5 9-2 1 3-10z" fill="#6A6A6A"/>
<path transform="translate(568,181)" d="m0 0h1v7l-6 5 2-6z" fill="#131313"/>
<path transform="translate(483,972)" d="m0 0h2v2l-6 2h-9v-1z" fill="#525252"/>
<path transform="translate(613,668)" d="m0 0h11l-3 4-7-2z" fill="#131313"/>
<path transform="translate(631,602)" d="m0 0 1 4-3 8-3 1 3-9z" fill="#646464"/>
<path transform="translate(372,578)" d="m0 0 3 3v5l-5-1 1-5z" fill="#131313"/>
<path transform="translate(646,567)" d="m0 0h1v7l-5 8-1-2z" fill="#494949"/>
<path transform="translate(718,366)" d="m0 0 1 3-6 7-4 1 6-8z" fill="#494949"/>
<path transform="translate(511,307)" d="m0 0h1l-1 8-3 5h-2l3-9z" fill="#404040"/>
</svg>
