<?xml version="1.0" standalone="no"?>
<!DOCTYPE svg PUBLIC "-//W3C//DTD SVG 20010904//EN"
 "http://www.w3.org/TR/2001/REC-SVG-20010904/DTD/svg10.dtd">
<svg version="1.0" xmlns="http://www.w3.org/2000/svg"
 width="300.000000pt" height="107.000000pt" viewBox="0 0 300.000000 107.000000"
 preserveAspectRatio="xMidYMid meet">
<metadata>
Created by potrace 1.10, written by Peter Selinger 2001-2011
</metadata>
<g transform="translate(0.000000,107.000000) scale(0.100000,-0.100000)"
fill="#000000" stroke="none">
<path d="M415 1009 c-4 -5 -4 -21 -1 -34 4 -15 -2 -37 -15 -59 -15 -27 -17
-36 -7 -36 7 0 19 14 26 30 21 47 58 60 165 60 l93 0 45 -77 c29 -52 43 -87
41 -105 -2 -16 2 -28 7 -28 6 0 11 7 11 15 0 8 5 15 10 15 18 0 11 -38 -8 -42
-10 -3 -34 -34 -54 -69 -26 -47 -41 -65 -59 -68 -13 -1 -27 -7 -30 -13 -10
-15 -159 -16 -159 0 0 6 -11 12 -25 12 -16 0 -25 6 -25 15 0 8 -4 15 -10 15
-5 0 -10 7 -10 15 0 9 -7 18 -15 21 -8 4 -15 15 -15 25 0 10 -4 19 -10 19 -5
0 -10 7 -10 16 0 9 -8 23 -17 30 -17 13 -17 15 0 28 9 7 17 18 17 24 0 6 5 12
11 14 6 2 10 13 7 23 -3 16 -8 12 -28 -22 l-24 -43 -73 0 c-58 0 -73 -3 -73
-15 0 -12 15 -15 74 -15 l74 0 46 -78 c25 -43 46 -91 46 -105 0 -20 6 -28 26
-33 15 -4 29 -2 33 4 10 16 160 20 166 4 3 -7 15 -12 27 -10 18 2 22 8 20 29
-2 17 3 29 12 32 9 4 16 13 16 22 0 8 5 15 10 15 6 0 10 11 10 25 0 16 6 25
15 25 8 0 15 8 15 18 0 11 12 24 26 30 14 7 23 16 20 21 -4 5 0 12 6 15 10 5
10 7 1 12 -7 3 -13 12 -13 20 0 8 -9 14 -20 14 -13 0 -20 7 -20 20 0 11 -7 23
-15 26 -8 4 -15 15 -15 25 0 10 -4 19 -10 19 -5 0 -10 9 -10 19 0 10 -7 21
-15 25 -8 3 -14 11 -13 18 2 10 -23 13 -105 13 -73 0 -107 4 -107 11 0 22 -54
32 -65 13z m47 -33 c7 4 8 2 4 -5 -9 -13 -26 -5 -25 12 0 9 2 8 6 -1 2 -6 10
-9 15 -6z m13 -405 c0 -23 -22 -24 -28 -1 -4 16 -1 20 11 18 9 -2 17 -10 17
-17z"/>
<path d="M650 930 c0 -5 5 -10 11 -10 5 0 7 5 4 10 -3 6 -8 10 -11 10 -2 0 -4
-4 -4 -10z"/>
<path d="M1968 863 c7 -3 16 -2 19 1 4 3 -2 6 -13 5 -11 0 -14 -3 -6 -6z"/>
<path d="M701 844 c0 -11 3 -14 6 -6 3 7 2 16 -1 19 -3 4 -6 -2 -5 -13z"/>
<path d="M1125 743 c4 -97 3 -93 15 -93 6 0 10 14 10 30 0 27 3 30 33 30 37 0
67 25 67 56 0 31 -35 54 -84 54 l-43 0 2 -77z m92 31 c7 -19 -23 -46 -47 -42
-8 2 -16 16 -18 31 -3 24 0 27 28 27 19 0 33 -6 37 -16z"/>
<path d="M1305 740 c0 -44 3 -80 8 -80 4 0 12 0 17 0 6 0 10 11 10 25 0 35 26
32 45 -5 9 -16 22 -30 31 -30 12 0 13 4 3 23 -7 12 -17 25 -23 30 -8 5 -7 10
4 16 21 14 24 66 5 85 -10 10 -33 16 -58 16 l-42 0 0 -80z m92 34 c7 -18 -12
-34 -39 -34 -13 0 -18 8 -18 25 0 20 5 25 25 25 14 0 28 -7 32 -16z"/>
<path d="M1490 735 l0 -85 55 0 c49 0 55 2 55 21 0 18 -5 20 -42 17 -37 -3
-43 0 -46 18 -3 18 1 20 33 16 27 -3 35 -1 35 12 0 12 -9 16 -35 16 -28 0 -35
4 -35 20 0 17 7 20 45 20 33 0 45 4 45 15 0 12 -13 15 -55 15 l-55 0 0 -85z"/>
<path d="M1660 734 c0 -64 3 -85 13 -81 7 2 11 17 9 39 -2 20 2 39 11 46 11 9
17 2 31 -38 16 -44 20 -48 37 -39 14 7 18 16 13 34 -4 17 0 26 14 34 12 6 23
19 25 28 2 10 2 -1 0 -25 -5 -48 4 -85 19 -80 5 2 10 41 11 86 l2 82 -26 0
c-23 0 -28 -7 -43 -54 -13 -39 -22 -53 -32 -49 -8 3 -14 17 -14 32 0 35 -26
71 -51 71 -17 0 -19 -8 -19 -86z"/>
<path d="M1928 803 c-38 -44 -27 -121 19 -142 33 -15 93 5 93 31 0 22 -8 23
-31 2 -43 -38 -105 22 -74 70 20 30 51 39 69 20 17 -17 36 -18 36 -3 0 36 -85
52 -112 22z"/>
<path d="M2108 734 c3 -60 7 -84 15 -81 7 2 11 17 10 33 -3 34 8 42 47 36 27
-4 30 -8 30 -38 0 -19 5 -34 10 -34 6 0 10 35 10 85 0 50 -4 85 -10 85 -5 0
-10 -16 -10 -35 0 -34 -1 -35 -41 -35 l-41 0 6 35 c6 29 4 35 -11 35 -16 0
-18 -9 -15 -86z"/>
<path d="M2340 807 c0 -7 -11 -42 -25 -77 -27 -69 -28 -92 -4 -68 8 8 31 18
51 22 31 6 39 3 48 -14 13 -23 30 -27 30 -5 0 8 -4 15 -10 15 -5 0 -10 14 -10
30 0 17 -4 30 -10 30 -5 0 -10 12 -10 26 0 27 -24 53 -47 54 -7 0 -13 -6 -13
-13z m44 -89 c-9 -14 -34 -9 -34 7 0 8 6 24 12 35 12 19 13 19 20 -7 4 -14 5
-30 2 -35z"/>
<path d="M2493 738 c1 -53 6 -83 14 -85 8 -3 13 12 15 43 2 26 8 49 13 51 6 2
22 -18 36 -44 16 -32 32 -49 47 -51 21 -3 22 0 22 82 0 70 -3 86 -15 86 -11 0
-15 -12 -15 -51 0 -43 -3 -50 -16 -45 -9 3 -18 6 -20 6 -2 0 -4 9 -4 20 0 11
-7 23 -15 26 -8 4 -15 15 -15 25 0 13 -7 19 -24 19 -24 0 -24 -1 -23 -82z"/>
<path d="M2700 735 l0 -85 36 0 c20 0 49 8 65 17 26 15 29 23 29 65 0 66 -20
88 -82 88 l-48 0 0 -85z m101 31 c16 -33 4 -76 -21 -77 -11 -1 -26 -2 -32 -3
-9 -1 -12 15 -11 49 1 28 2 51 2 53 1 1 12 2 26 2 17 0 29 -8 36 -24z"/>
<path d="M2760 730 c0 -5 5 -10 11 -10 5 0 7 5 4 10 -3 6 -8 10 -11 10 -2 0
-4 -4 -4 -10z"/>
<path d="M2281 764 c0 -11 3 -14 6 -6 3 7 2 16 -1 19 -3 4 -6 -2 -5 -13z"/>
<path d="M868 743 c17 -2 47 -2 65 0 17 2 3 4 -33 4 -36 0 -50 -2 -32 -4z"/>
<path d="M1621 734 c0 -11 3 -14 6 -6 3 7 2 16 -1 19 -3 4 -6 -2 -5 -13z"/>
<path d="M970 715 c-9 -11 -32 -15 -80 -15 l-68 0 -41 -69 c-22 -38 -41 -73
-41 -78 0 -5 18 -39 40 -77 l40 -68 0 -126 c0 -100 -3 -129 -16 -143 -12 -14
-13 -22 -4 -38 12 -23 40 -29 40 -8 0 8 4 7 10 -3 7 -11 10 -7 10 18 0 17 -4
32 -10 32 -6 0 -10 50 -10 130 l0 130 59 0 c33 0 63 -4 66 -10 3 -5 15 -10 26
-10 11 0 17 5 14 10 -3 6 1 10 9 10 22 0 20 30 -1 30 -17 1 -17 1 0 14 9 7 17
20 17 29 0 8 7 17 15 21 8 3 15 12 15 21 0 13 19 15 124 15 94 0 126 -3 135
-14 21 -25 49 -8 48 27 -2 25 -7 33 -25 35 -13 2 -25 -3 -28 -12 -5 -13 -25
-16 -116 -16 -112 0 -126 4 -141 43 -3 9 -11 17 -17 17 -5 0 -10 9 -10 19 0
11 -6 22 -12 25 -10 5 -10 7 0 12 16 8 15 32 -2 50 -19 18 -30 18 -46 -1z m10
-57 c17 -12 42 -41 55 -65 l25 -42 -31 -51 c-18 -30 -38 -50 -49 -50 -10 0
-20 -7 -24 -15 -4 -10 -20 -15 -53 -15 -62 0 -93 9 -87 24 3 7 -2 19 -11 26
-8 7 -15 18 -15 25 0 8 -5 15 -12 17 -6 2 -11 19 -11 38 0 19 5 36 11 38 7 2
12 12 12 22 0 10 7 21 16 24 9 3 14 12 11 20 -8 21 -3 23 68 25 53 2 70 -2 95
-21z m360 -112 c0 -3 -4 -8 -10 -11 -5 -3 -10 -1 -10 4 0 6 5 11 10 11 6 0 10
-2 10 -4z m-350 -126 c0 -5 -2 -10 -4 -10 -3 0 -8 5 -11 10 -3 6 -1 10 4 10 6
0 11 -4 11 -10z"/>
<path d="M2160 680 c0 -5 5 -10 10 -10 6 0 10 5 10 10 0 6 -4 10 -10 10 -5 0
-10 -4 -10 -10z"/>
<path d="M675 670 c-3 -5 -1 -10 4 -10 6 0 11 5 11 10 0 6 -2 10 -4 10 -3 0
-8 -4 -11 -10z"/>
<path d="M1190 669 c0 -5 5 -7 10 -4 6 3 10 8 10 11 0 2 -4 4 -10 4 -5 0 -10
-5 -10 -11z"/>
<path d="M1553 613 c9 -2 23 -2 30 0 6 3 -1 5 -18 5 -16 0 -22 -2 -12 -5z"/>
<path d="M1978 613 c7 -3 16 -2 19 1 4 3 -2 6 -13 5 -11 0 -14 -3 -6 -6z"/>
<path d="M1090 590 c0 -5 5 -10 11 -10 5 0 7 5 4 10 -3 6 -8 10 -11 10 -2 0
-4 -4 -4 -10z"/>
<path d="M473 498 c-5 -7 -22 -35 -38 -63 -16 -27 -33 -53 -39 -57 -6 -4 -37
-6 -68 -3 -47 4 -58 2 -58 -10 0 -12 14 -15 64 -15 l64 0 30 -49 c21 -33 29
-56 25 -72 -4 -15 0 -26 12 -35 24 -18 35 -18 35 -1 0 10 19 15 71 16 72 2 99
14 99 44 0 8 7 18 16 21 8 3 12 10 9 16 -3 6 1 13 9 16 9 3 16 14 16 24 0 10
5 20 11 22 10 3 -32 93 -50 108 -3 3 -11 14 -17 25 -10 17 -23 20 -96 23 -60
2 -88 -1 -95 -10z m206 -71 c19 -35 31 -70 28 -78 -3 -8 -19 -36 -35 -64 l-28
-50 -60 -3 c-49 -2 -64 1 -84 18 -12 11 -29 20 -36 20 -7 0 -11 6 -8 13 3 8
-2 20 -11 27 -8 7 -15 18 -15 25 0 8 -5 15 -11 17 -12 4 3 38 29 66 7 7 10 17
7 22 -3 4 2 10 10 14 8 3 15 12 15 21 0 12 15 15 83 15 l82 0 34 -63z m-179
-201 c0 -3 -4 -8 -10 -11 -5 -3 -10 -1 -10 4 0 6 5 11 10 11 6 0 10 -2 10 -4z"/>
<path d="M716 483 c-6 -14 -5 -15 5 -6 7 7 10 15 7 18 -3 3 -9 -2 -12 -12z"/>
<path d="M1080 490 c-8 -5 -12 -12 -9 -15 4 -3 12 1 19 10 14 17 11 19 -10 5z"/>
<path d="M1440 400 c0 -21 4 -30 13 -27 6 2 17 -5 24 -17 12 -21 12 -21 13 2
0 12 -7 25 -15 28 -8 4 -15 12 -15 19 0 8 -4 17 -10 20 -6 4 -10 -7 -10 -25z"/>
<path d="M1499 428 c-7 -25 -7 -48 1 -48 6 0 10 11 10 25 0 20 -7 35 -11 23z"/>
<path d="M1853 418 c-4 -7 -9 -28 -10 -46 -2 -30 -1 -31 15 -16 15 15 17 15
26 -5 12 -27 26 -28 19 -1 -3 11 0 26 5 33 9 10 6 17 -8 30 -24 20 -36 21 -47
5z m42 -17 c8 -14 -13 -24 -33 -16 -14 5 -14 7 -2 15 19 12 27 12 35 1z"/>
<path d="M2120 425 c-5 -22 -5 -95 0 -95 3 0 10 16 16 35 6 19 8 35 3 35 -4 0
-10 8 -12 18 -3 9 -6 13 -7 7z"/>
<path d="M1208 378 c-3 -40 -4 -41 -21 -24 -21 21 -36 14 -17 -9 19 -23 50
-19 50 8 0 12 3 32 6 45 4 12 2 22 -4 22 -6 0 -12 -19 -14 -42z"/>
<path d="M1320 401 c0 -11 -4 -23 -10 -26 -5 -3 -10 -15 -10 -26 0 -16 3 -17
19 -7 15 9 23 9 35 -1 14 -12 16 -10 16 7 0 12 -4 24 -10 27 -5 3 -10 1 -10
-4 0 -6 -8 -11 -17 -11 -13 0 -14 3 -5 12 15 15 16 48 2 48 -5 0 -10 -9 -10
-19z"/>
<path d="M1572 374 c0 -24 4 -44 9 -44 6 0 7 5 4 10 -4 6 -1 18 6 26 11 13 14
12 25 -13 l12 -28 1 28 c1 15 -3 27 -7 27 -5 0 -17 9 -29 19 -20 19 -20 19
-21 -25z"/>
<path d="M1730 406 c0 -7 -7 -26 -15 -42 -17 -34 -14 -40 14 -22 18 11 23 11
31 -2 14 -22 25 -3 12 22 -6 13 -11 17 -11 11 -1 -15 -31 -18 -31 -3 0 6 5 10
10 10 6 0 10 9 10 20 0 11 -4 20 -10 20 -5 0 -10 -6 -10 -14z"/>
<path d="M1997 413 c-12 -19 -25 -83 -17 -83 5 0 10 6 13 13 3 9 9 9 26 -1 19
-11 21 -10 21 13 0 14 -4 25 -10 25 -5 0 -10 -4 -10 -10 0 -5 -5 -10 -11 -10
-6 0 -8 7 -5 15 3 8 9 22 12 30 6 15 -11 22 -19 8z"/>
<path d="M2160 400 c-9 -17 -10 -25 -1 -28 6 -2 11 -12 11 -23 0 -10 4 -19 8
-19 4 0 6 17 4 38 -5 56 -7 59 -22 32z"/>
<path d="M2071 354 c0 -11 3 -14 6 -6 3 7 2 16 -1 19 -3 4 -6 -2 -5 -13z"/>
<path d="M1431 344 c0 -11 3 -14 6 -6 3 7 2 16 -1 19 -3 4 -6 -2 -5 -13z"/>
<path d="M288 313 c7 -3 16 -2 19 1 4 3 -2 6 -13 5 -11 0 -14 -3 -6 -6z"/>
<path d="M335 310 c3 -5 8 -10 11 -10 2 0 4 5 4 10 0 6 -5 10 -11 10 -5 0 -7
-4 -4 -10z"/>
<path d="M375 310 c3 -5 8 -10 11 -10 2 0 4 5 4 10 0 6 -5 10 -11 10 -5 0 -7
-4 -4 -10z"/>
<path d="M870 309 c0 -5 5 -7 10 -4 6 3 10 8 10 11 0 2 -4 4 -10 4 -5 0 -10
-5 -10 -11z"/>
</g>
</svg>
